<?xml version="1.0" encoding="UTF-8"?>
<svg width="200px" height="50px" viewBox="0 0 200 50" version="1.1" xmlns="http://www.w3.org/2000/svg" xmlns:xlink="http://www.w3.org/1999/xlink">
    <title>video copy</title>
    <defs>
        <polygon id="path-1" points="0 0.225 65.5408994 0.225 65.5408994 44.7018974 0 44.7018974"></polygon>
    </defs>
    <g id="video-copy" stroke="none" stroke-width="1" fill="none" fill-rule="evenodd">
        <g id="Group-3" transform="translate(0.000000, 2.073013)">
            <mask id="mask-2" fill="white">
                <use xlink:href="#path-1"></use>
            </mask>
            <g id="Clip-2"></g>
            <path d="M41.3249096,16.3194139 L41.3218976,16.3510033 C41.2399699,16.7977252 40.8450904,17.1362682 40.3715964,17.1362682 L40.3514157,17.1338841 L30.4869578,17.1338841 L30.4616566,17.1288179 C29.9279217,17.1288179 29.4950904,16.7014669 29.4950904,16.1748775 C29.4950904,16.0011358 29.5408735,15.8387185 29.6221988,15.6995464 L29.6315361,15.6786854 C30.9905723,13.3756391 33.4938855,11.6042483 36.7508133,11.6042483 C40.1146687,11.6042483 41.7984036,13.7693146 41.3249096,16.3194139 L41.3249096,16.3194139 Z M26.5249096,25.9473278 L62.1435843,25.9473278 L62.170994,25.9473278 C62.9935843,25.9473278 63.6971988,25.4314669 63.9737048,24.713553 L63.9803313,24.7043146 C69.8652711,9.49461258 58.5041265,0.224910596 40.0167771,0.224910596 C23.0387651,0.224910596 6.22822289,9.03924834 1.18274096,23.1433212 C-4.05912651,37.808851 8.84569277,44.7018974 25.6218976,44.7018974 C37.2315361,44.7018974 52.2529217,40.4575927 59.8261145,31.2886192 L59.8384639,31.2758046 C59.9734036,31.1110033 60.0541265,30.900606 60.0541265,30.6723278 C60.0541265,30.1439503 59.6221988,29.7157053 59.0884639,29.7157053 L59.0616566,29.7174934 L36.7996084,29.7174934 L36.7981024,29.7133212 C36.1947892,29.7133212 35.6568373,29.9877914 35.3026205,30.4181225 L35.2785241,30.4503079 C33.9348494,32.0786523 31.6869578,33.241798 29.3173795,33.241798 C24.2845482,33.241798 24.5002108,29.9323609 25.5405723,26.7004073 L25.5658735,26.6157715 C25.6884639,26.2280563 26.0553313,25.9449437 26.4887651,25.9449437 L26.5249096,25.9473278 Z" id="Fill-1" fill="#CA331C" mask="url(#mask-2)"></path>
        </g>
        <path d="M61.0536747,43.2637483 C60.6386145,43.1648079 60.3307831,42.7940795 60.3307831,42.3527219 C60.3307831,42.0767616 60.4503614,41.8303046 60.6413253,41.6598411 L60.6943373,41.6154371 L71.7253614,31.7640132 C72.063012,31.4522914 72.5160241,31.2621589 73.0142169,31.2621589 C73.2840964,31.2621589 73.5410241,31.3166954 73.7729518,31.4180199 L74.0545783,31.5408013 C78.9181325,33.6647417 85.0386145,35.3941126 92.1687349,35.3941126 C92.1687349,35.3941126 100.287711,34.7793113 100.894639,32.8812649 C101.504578,30.9826225 97.4853012,30.8148411 94.745241,30.5359007 L88.7018675,29.980106 C76.9331928,28.9170927 67.8774699,25.3999404 69.9925301,18.8120596 C73.2006627,8.81818543 93.4377108,3.23311921 111.995542,3.23311921 C121.026265,3.23311921 129.050361,4.24219205 136.205482,6.39503974 L136.272651,6.41739073 C136.671446,6.52795364 136.963916,6.89003974 136.963916,7.31917881 C136.963916,7.57815232 136.857289,7.81298675 136.687108,7.98196026 L136.655482,8.01265563 L127.005181,16.8028543 L126.871145,16.9244437 C126.871145,16.9244437 126.084699,17.4164636 125.592831,17.4164636 C125.403976,17.4164636 125.222952,17.3899404 125.052771,17.3395762 L124.776867,17.2403377 C120.313614,15.6766623 115.152771,14.5114305 109.055181,14.5114305 C106.339217,14.5114305 102.216627,15.0147748 101.659699,16.7468278 C101.159699,18.3084172 104.935301,18.5319272 107.222651,18.8120596 L113.987711,19.5928543 C126.647952,21.0459669 135.043434,24.5061987 132.748855,31.6522583 C129.521446,41.703649 109.369639,46.6718278 90.9250602,46.6718278 C80.8666265,46.6718278 69.7325904,45.4008013 61.0937349,43.2720927 L61.0536747,43.2637483 Z" id="Fill-4" fill="#CA331C"></path>
        <path d="M168.052289,30.8138278 C167.631807,30.8138278 167.274578,31.0862119 167.151386,31.4617086 L167.140843,31.492404 L163.292349,43.575351 L163.284518,43.6081325 C163.049277,44.3767086 162.328193,44.9363775 161.475181,44.9363775 L161.419759,44.9319073 L134.501988,44.9319073 L134.482711,44.9319073 C133.959518,44.9319073 133.53512,44.5123046 133.53512,43.9946556 C133.53512,43.9025695 133.548072,43.8092914 133.57488,43.7240596 L133.583614,43.7005166 L145.603795,5.94968874 L145.61253,5.93329801 C145.84988,5.17068212 146.568554,4.61548344 147.418855,4.61548344 L147.438133,4.61548344 L199.002289,4.61548344 L199.020964,4.61637748 C199.543253,4.61637748 199.967952,5.03568212 199.967952,5.55362914 C199.967952,5.65554967 199.951084,5.75329801 199.921566,5.84449007 L199.917952,5.86207285 L197.062229,14.8289934 L197.04988,14.8581987 C196.808313,15.6142583 196.092651,16.1629007 195.248072,16.1629007 L195.214036,16.1629007 L172.740542,16.1629007 L172.714337,16.1649868 C172.29506,16.1649868 171.93994,16.4349868 171.81494,16.8078013 L171.079699,19.1230662 C171.052892,19.2094901 171.03994,19.2991921 171.03994,19.3930662 C171.03994,19.9104172 171.462831,20.3306159 171.986928,20.3306159 L172.027892,20.3347881 L190.976084,20.3347881 L191.008313,20.3347881 C191.531506,20.3347881 191.955602,20.7537947 191.955602,21.2711457 C191.955602,21.3665099 191.942349,21.458298 191.916145,21.5453179 L191.906807,21.5661788 C191.906807,21.5661788 189.373976,29.5428013 189.336928,29.6328013 C189.061024,30.3250861 188.37759,30.8162119 187.578494,30.8162119 L187.379699,30.8147219 L168.078494,30.8147219 L168.052289,30.8138278 Z" id="Fill-6" fill="#CA331C"></path>
    </g>
</svg>